<?xml version="1.0" encoding="UTF-8" standalone="no"?>
<!-- Created with Inkscape (http://www.inkscape.org/) -->

<svg
   width="512"
   height="512"
   viewBox="0 0 512 512"
   version="1.1"
   id="svg1"
   inkscape:version="1.4 (86a8ad7, 2024-10-11)"
   sodipodi:docname="logo.svg"
   inkscape:export-filename="logo.png"
   inkscape:export-xdpi="96"
   inkscape:export-ydpi="96"
   xmlns:inkscape="http://www.inkscape.org/namespaces/inkscape"
   xmlns:sodipodi="http://sodipodi.sourceforge.net/DTD/sodipodi-0.dtd"
   xmlns:xlink="http://www.w3.org/1999/xlink"
   xmlns="http://www.w3.org/2000/svg"
   xmlns:svg="http://www.w3.org/2000/svg">
  <sodipodi:namedview
     id="namedview1"
     pagecolor="#505050"
     bordercolor="#eeeeee"
     borderopacity="1"
     inkscape:showpageshadow="0"
     inkscape:pageopacity="0"
     inkscape:pagecheckerboard="0"
     inkscape:deskcolor="#505050"
     inkscape:document-units="px"
     inkscape:zoom="1.1808131"
     inkscape:cx="443.76202"
     inkscape:cy="241.78255"
     inkscape:window-width="1920"
     inkscape:window-height="1057"
     inkscape:window-x="-8"
     inkscape:window-y="1072"
     inkscape:window-maximized="1"
     inkscape:current-layer="layer1" />
  <defs
     id="defs1">
    <inkscape:path-effect
       effect="bspline"
       id="path-effect24"
       is_visible="true"
       lpeversion="1.3"
       weight="33.333333"
       steps="2"
       helper_size="0"
       apply_no_weight="true"
       apply_with_weight="true"
       only_selected="false"
       uniform="false" />
    <inkscape:path-effect
       effect="bspline"
       id="path-effect23"
       is_visible="true"
       lpeversion="1.3"
       weight="33.333333"
       steps="2"
       helper_size="0"
       apply_no_weight="true"
       apply_with_weight="true"
       only_selected="false"
       uniform="false" />
    <linearGradient
       id="linearGradient19"
       inkscape:collect="always">
      <stop
         style="stop-color:#cdcdcd;stop-opacity:1;"
         offset="0.81862742"
         id="stop19" />
      <stop
         style="stop-color:#f9f9f9;stop-opacity:0;"
         offset="1"
         id="stop20" />
    </linearGradient>
    <inkscape:path-effect
       effect="bspline"
       id="path-effect14"
       is_visible="true"
       lpeversion="1.3"
       weight="33.333333"
       steps="2"
       helper_size="0"
       apply_no_weight="true"
       apply_with_weight="true"
       only_selected="false"
       uniform="false" />
    <inkscape:path-effect
       effect="bspline"
       id="path-effect13"
       is_visible="true"
       lpeversion="1.3"
       weight="33.333333"
       steps="2"
       helper_size="0"
       apply_no_weight="true"
       apply_with_weight="true"
       only_selected="false"
       uniform="false" />
    <radialGradient
       inkscape:collect="always"
       xlink:href="#linearGradient19"
       id="radialGradient20"
       cx="256"
       cy="256"
       fx="256"
       fy="256"
       r="210.5135"
       gradientUnits="userSpaceOnUse" />
  </defs>
  <g
     inkscape:label="Strat 1"
     inkscape:groupmode="layer"
     id="layer1">
    <rect
       style="fill:#000000;fill-opacity:1"
       id="rect15"
       width="310.8028"
       height="93.156136"
       x="33.874962"
       y="215.9529"
       ry="33.028084" />
    <circle
       style="fill:#000000;stroke-width:1.41812"
       id="path1"
       cx="256"
       cy="256"
       r="243.72398" />
    <circle
       style="fill:url(#radialGradient20);stroke-width:1.22489"
       id="path1-8"
       cx="256"
       cy="256"
       r="210.5135" />
    <ellipse
       style="fill:#0000ff;fill-opacity:1;stroke:#000080"
       id="path21"
       cx="219.82811"
       cy="173.30655"
       rx="56.740562"
       ry="107.97645"
       transform="rotate(13.197181)" />
    <ellipse
       style="fill:#00ff00;fill-opacity:1;stroke:#00ff00"
       id="path22"
       cx="430.07468"
       cy="83.737793"
       rx="63.515556"
       ry="106.2827"
       transform="rotate(30.73056)" />
    <path
       style="fill:#000000;fill-opacity:1;stroke:#000000"
       d="m 177.70241,50.106718 c 6.91614,0.423436 23.00675,-0.70573 31.89893,-0.988022 8.89217,-0.282292 10.58592,0.282291 11.71509,0.846874 1.12916,0.564582 1.69375,1.129168 2.82291,1.552605 1.12917,0.423436 2.82292,0.705728 5.50469,2.25833 2.68176,1.552602 6.35155,4.375516 8.32759,6.210409 1.97604,1.834894 2.25833,2.681768 2.54062,3.105205 0.28229,0.423437 0.56458,0.423437 0.98802,1.270312 0.42343,0.846876 0.98802,2.540623 1.5526,3.66979 0.56459,1.129166 1.12917,1.693747 1.8349,3.387495 0.70572,1.693749 1.5526,4.516661 3.24635,9.880197 1.69374,5.363537 4.23437,13.267694 5.64582,19.901537 1.41146,6.63385 1.69375,11.99739 2.25833,17.50207 0.56459,5.50468 1.41146,11.15051 1.97605,15.80831 0.56458,4.65781 0.84687,8.3276 1.5526,11.15052 0.70573,2.82291 1.83489,4.79895 2.68177,6.49269 0.84687,1.69375 1.41145,3.10521 3.24634,5.08125 1.8349,1.97604 4.9401,4.51666 7.48073,5.92812 2.54062,1.41145 4.51666,1.69375 8.75103,1.97604 4.23437,0.28229 10.72707,0.56458 14.96144,0.42343 4.23437,-0.14114 6.21041,-0.70573 9.17447,-1.41145 2.96406,-0.70573 6.91614,-1.55261 10.02134,-2.54063 3.10521,-0.98802 5.36354,-2.11718 7.33958,-2.68177 1.97604,-0.56458 3.66979,-0.56458 5.36354,-0.84687 1.69374,-0.28229 3.38749,-0.84687 6.21041,-1.41145 2.82291,-0.56458 6.77499,-1.12917 11.15051,-1.83489 4.37551,-0.70573 9.17446,-1.55261 14.67915,-1.97604 5.50468,-0.42344 11.71509,-0.42344 19.05466,0 7.33958,0.42343 15.80832,1.27031 20.60727,1.97603 4.79895,0.70573 5.92812,1.27031 8.32759,1.8349 2.39948,0.56458 6.06927,1.12916 9.73906,2.11718 3.66979,0.98802 7.33957,2.39947 9.45676,3.38749 2.11718,0.98803 2.68177,1.55261 3.3875,1.8349 0.70572,0.28229 1.5526,0.28229 2.96406,0.98802 1.41145,0.70573 3.38749,2.11719 5.64582,3.3875 2.25833,1.27031 4.79896,2.39947 6.91614,3.66979 2.11719,1.27031 3.81093,2.68176 5.36353,3.66978 1.55261,0.98802 2.96407,1.55261 4.65781,2.39948 1.69375,0.84687 3.66979,1.97604 5.08125,2.82291 1.41146,0.84688 2.25833,1.41146 1.83489,0.14115 -0.42343,-1.27031 -2.11718,-4.37552 -3.24635,-7.33958 -1.12916,-2.96406 -1.69375,-5.78697 -2.54062,-8.32759 -0.84687,-2.54062 -1.97604,-4.79895 -2.68177,-6.77499 -0.70573,-1.97604 -0.98802,-3.66979 -1.97604,-6.35156 -0.98802,-2.68177 -2.68177,-6.35156 -3.81093,-9.03333 -1.12916,-2.68176 -1.69375,-4.37551 -3.24635,-7.48071 -1.5526,-3.10521 -4.09323,-7.62187 -5.78698,-10.30364 -1.69374,-2.68177 -2.54062,-3.52864 -3.1052,-4.37552 -0.56458,-0.84687 -0.84687,-1.69374 -2.39948,-2.39947 -1.5526,-0.70573 -4.37551,-1.27032 -6.49269,-1.8349 -2.11719,-0.56458 -3.52865,-1.12916 -5.2224,-1.69374 -1.69375,-0.56458 -3.66979,-1.12917 -5.78698,-1.55261 -2.11718,-0.42343 -4.37551,-0.70573 -6.4927,-1.12916 -2.11718,-0.42344 -4.09322,-0.98802 -6.21041,-1.27031 -2.11718,-0.28229 -4.37551,-0.28229 -7.90415,-0.70573 -3.52864,-0.42344 -8.3276,-1.27031 -13.40884,-1.69375 -5.08124,-0.42344 -10.44478,-0.42344 -13.83228,-0.14115 -3.38749,0.28229 -4.79895,0.84688 -6.63385,1.27031 -1.83489,0.42344 -4.09322,0.70574 -5.78697,1.12917 -1.69375,0.42344 -2.82291,0.98802 -4.37552,1.41146 -1.5526,0.42343 -3.52864,0.70573 -4.51666,0.98802 -0.98801,0.28229 -0.98801,0.56458 -1.83489,0.70573 -0.84687,0.14114 -2.54062,0.14114 -3.52864,0.28229 -0.98802,0.14114 -1.27031,0.42343 -1.83489,0.56458 -0.56459,0.14115 -1.41146,0.14115 -2.82292,0.42344 -1.41146,0.28229 -3.38749,0.84687 -6.77499,1.12916 -3.3875,0.28229 -8.18645,0.28229 -10.72707,0.42344 -2.54063,0.14115 -2.82292,0.42344 -4.65781,0.42344 -1.83489,0 -5.22239,-0.2823 -7.19843,-0.70573 -1.97604,-0.42344 -2.54062,-0.98802 -3.3875,-1.41146 -0.84687,-0.42343 -1.97604,-0.70573 -2.96406,-1.27031 -0.98802,-0.56458 -1.83489,-1.41146 -3.1052,-2.39948 -1.27031,-0.98802 -2.96406,-2.11718 -4.09322,-3.24635 -1.12917,-1.12916 -1.69376,-2.25833 -2.54063,-3.24635 -0.84687,-0.98802 -1.97604,-1.83489 -3.52864,-3.95208 -1.5526,-2.117183 -3.52864,-5.504679 -4.79895,-8.892174 -1.27031,-3.387496 -1.8349,-6.774994 -2.39948,-9.033324 -0.56458,-2.25833 -1.12917,-3.387494 -1.41146,-4.375515 -0.28229,-0.988021 -0.28229,-1.834895 -0.42344,-2.399478 -0.14114,-0.564583 -0.42343,-0.846874 -0.70572,-2.399476 -0.28229,-1.552603 -0.56459,-4.375516 -0.98802,-6.351556 -0.42344,-1.97604 -0.98802,-3.105205 -1.41146,-4.940099 -0.42343,-1.834895 -0.70573,-4.375516 -1.12916,-6.351555 -0.42344,-1.976039 -0.98803,-3.387495 -1.41146,-4.798953 -0.42344,-1.411458 -0.70573,-2.822914 -1.12917,-3.810933 -0.42343,-0.988019 -0.98802,-1.552605 -1.5526,-2.68177 -0.56458,-1.129164 -1.12917,-2.822911 -2.82291,-5.222388 -1.69375,-2.399476 -4.51666,-5.50468 -8.89218,-7.339575 -4.37552,-1.834896 -10.30363,-2.399478 -15.94946,-2.540624 -5.64583,-0.141145 -11.00936,0.141145 -15.94946,0.705728 -4.9401,0.564582 -9.45676,1.411456 -13.83228,1.976039 -4.37552,0.564583 -8.60989,0.846875 -13.97343,2.117186 -5.36353,1.270311 -11.85623,3.528642 -15.24373,4.940098 -3.38749,1.411457 -3.66979,1.976038 -4.51666,2.540621 -0.84687,0.564582 -2.25833,1.129166 -3.10521,1.69375 -0.84687,0.564583 -1.12916,1.129166 -1.41145,1.411458 -0.28229,0.282291 -0.56458,0.282291 -1.83489,1.270312 -1.27032,0.988021 -3.52865,2.964059 3.38749,3.387496 z"
       id="path23"
       inkscape:path-effect="#path-effect23"
       inkscape:original-d="m 168.52794,51.659319 c 16.09061,-1.129165 32.18122,-2.258331 48.27183,-3.387496 1.69374,0.564583 3.38749,1.129165 5.08124,1.693748 0.56458,0.564583 1.12917,1.129166 1.69375,1.693748 1.69375,0.282292 3.3875,0.564583 5.08124,0.846874 3.66979,2.822914 7.33958,5.645828 11.00937,8.468741 0.28229,0.846874 0.56458,1.693748 0.84687,2.540622 0.28229,0 0.56458,0 0.84687,0 0.56459,1.693749 1.12917,3.387497 1.69375,5.081245 0.56459,0.564583 1.12917,1.129165 1.69375,1.693748 0.84688,2.822914 1.69375,5.645827 2.54062,8.468741 2.54063,7.904158 5.08125,15.808316 7.62187,23.71247 0.28229,5.36354 0.56458,10.72708 0.84687,16.09061 0.84688,5.64583 1.69375,11.29166 2.54063,16.93748 0.28229,3.66979 0.56458,7.33958 0.84687,11.00937 1.12917,1.97604 2.25833,3.95208 3.3875,5.92812 0.56458,1.41145 1.12916,2.82291 1.69374,4.23437 3.10521,2.54062 6.21041,5.08124 9.31562,7.62186 1.97604,0.28229 3.95208,0.56459 5.92812,0.84688 6.4927,0.28229 12.9854,0.56458 19.4781,0.84687 1.97604,-0.56458 3.95208,-1.12916 5.92812,-1.69375 3.95208,-0.84687 7.90416,-1.69375 11.85624,-2.54062 2.25833,-1.12916 4.51666,-2.25833 6.77499,-3.3875 1.69375,0 3.3875,0 5.08125,0 1.69374,-0.56458 3.38749,-1.12916 5.08124,-1.69374 3.95208,-0.56459 7.90416,-1.12917 11.85624,-1.69375 4.79895,-0.84688 9.5979,-1.69375 14.39686,-2.54062 6.21041,0 12.42082,0 18.63123,0 8.46874,0.84687 16.93748,1.69374 25.40622,2.54062 1.12916,0.56458 2.25833,1.12916 3.3875,1.69375 3.66978,0.56458 7.33957,1.12916 11.00936,1.69374 3.66979,1.41146 7.33957,2.82292 11.00936,4.23437 0.56458,0.56459 1.12917,1.12917 1.69375,1.69375 0.84687,0 1.69375,0 2.54062,0 1.97604,1.41146 3.95208,2.82292 5.92812,4.23437 2.54062,1.12917 5.08125,2.25833 7.62187,3.3875 1.69375,1.41146 3.38749,2.82291 5.08124,4.23437 1.41146,0.56458 2.82292,1.12917 4.23437,1.69375 1.97604,1.12916 3.95208,2.25833 5.92812,3.38749 0.84688,0.56459 1.69375,1.12917 2.54062,1.69375 -1.69374,-3.1052 -3.38749,-6.21041 -5.08124,-9.31561 -0.56458,-2.82292 -1.12917,-5.64583 -1.69375,-8.46874 -1.12916,-2.25833 -2.25833,-4.51666 -3.3875,-6.775 -0.28229,-1.69374 -0.56458,-3.38749 -0.84687,-5.08124 -1.69375,-3.66979 -3.3875,-7.33958 -5.08124,-11.00936 -0.56459,-1.69375 -1.12917,-3.3875 -1.69375,-5.08125 -2.54062,-4.51666 -5.08125,-9.03332 -7.62187,-13.54998 -0.84687,-0.84688 -1.69375,-1.69375 -2.54062,-2.54063 -0.28229,-0.84687 -0.56458,-1.69374 -0.84688,-2.54062 -2.82291,-0.56458 -5.64582,-1.12916 -8.46874,-1.69375 -1.41145,-0.56458 -2.82291,-1.12916 -4.23437,-1.69374 -1.97604,-0.56459 -3.95208,-1.12917 -5.92812,-1.69375 -2.25833,-0.28229 -4.51666,-0.56459 -6.77499,-0.84688 -1.97604,-0.56458 -3.95208,-1.12916 -5.92812,-1.69374 -2.25833,0 -4.51666,0 -6.77499,0 -4.79895,-0.84688 -9.59791,-1.69375 -14.39686,-2.54063 -5.36353,0 -10.72707,0 -16.09061,0 -1.41145,0.56459 -2.82291,1.12917 -4.23437,1.69375 -2.25833,0.28229 -4.51666,0.56458 -6.77499,0.84688 -1.12917,0.56458 -2.25833,1.12916 -3.3875,1.69374 -1.97604,0.28229 -3.95208,0.56459 -5.92811,0.84688 0,0.28229 0,0.56458 0,0.84687 -1.69375,0 -3.3875,0 -5.08125,0 -0.28229,0.28229 -0.56458,0.56458 -0.84687,0.84688 -0.84688,0 -1.69375,0 -2.54063,0 -1.97604,0.56458 -3.95207,1.12916 -5.92811,1.69374 -4.79896,0 -9.59791,0 -14.39686,0 -0.28229,0.2823 -0.56459,0.56459 -0.84688,0.84688 -3.38749,-0.28229 -6.77499,-0.56458 -10.16249,-0.84688 -0.56458,-0.56458 -1.12916,-1.12916 -1.69374,-1.69374 -1.12917,-0.2823 -2.25834,-0.56459 -3.3875,-0.84688 -0.84688,-0.84687 -1.69375,-1.69375 -2.54062,-2.54062 -1.69375,-1.12917 -3.3875,-2.25833 -5.08125,-3.3875 -0.56458,-1.12916 -1.12916,-2.25833 -1.69375,-3.38749 -1.12916,-0.84688 -2.25833,-1.69375 -3.38749,-2.54063 -1.97604,-3.387492 -3.95208,-6.774988 -5.92812,-10.162485 -0.56458,-3.387496 -1.12917,-6.774992 -1.69375,-10.162489 -0.56458,-1.129165 -1.12916,-2.258331 -1.69375,-3.387496 0,-0.846874 0,-1.693748 0,-2.540622 -0.28229,-0.282292 -0.56458,-0.564583 -0.84687,-0.846874 -0.28229,-2.822914 -0.56458,-5.645828 -0.84688,-8.468741 -0.56458,-1.129166 -1.12916,-2.258331 -1.69374,-3.387497 -0.2823,-2.540622 -0.56459,-5.081244 -0.84688,-7.621866 -0.56458,-1.411457 -1.12916,-2.822914 -1.69375,-4.234371 -0.28229,-1.411457 -0.56458,-2.822913 -0.84687,-4.23437 -0.56458,-0.564583 -1.12917,-1.129166 -1.69375,-1.693748 -0.56458,-1.693749 -1.12916,-3.387497 -1.69375,-5.081245 -2.82291,-3.105205 -5.64582,-6.21041 -8.46874,-9.315615 -5.92812,-0.564583 -11.85623,-1.129165 -17.78435,-1.693748 -5.36354,0.282291 -10.72707,0.564583 -16.09061,0.846874 -4.51666,0.846874 -9.03332,1.693748 -13.54999,2.540622 -4.23437,0.282292 -8.46874,0.564583 -12.70311,0.846874 -6.4927,2.258331 -12.9854,4.516662 -19.4781,6.774993 -0.28229,0.564583 -0.56458,1.129166 -0.84688,1.693748 -1.41145,0.564583 -2.82291,1.129166 -4.23437,1.693748 -0.28229,0.564583 -0.56458,1.129166 -0.84687,1.693749 -0.28229,0 -0.56458,0 -0.84687,0 -2.25834,1.976039 -4.51667,3.952079 -6.775,5.928118 z" />
    <path
       style="fill:#000000;fill-opacity:1;stroke:#000000"
       d="m 73.678045,374.88293 c 4.516662,-2.25833 14.114569,-3.10521 19.901542,-3.52864 5.786972,-0.42344 7.763013,-0.42344 9.597903,-0.70573 1.8349,-0.28229 3.52864,-0.84688 4.9401,-1.12917 1.41146,-0.28229 2.54062,-0.28229 4.23437,-0.56458 1.69375,-0.28229 3.95208,-0.84688 5.50468,-1.12917 1.55261,-0.28229 2.39948,-0.28229 2.96406,-0.42344 0.56459,-0.14114 0.84688,-0.42343 1.97604,-0.56458 1.12917,-0.14114 3.10521,-0.14114 4.37552,-0.28228 1.27031,-0.14115 1.83489,-0.42344 2.96406,-0.56458 1.12916,-0.14115 2.82291,-0.14115 5.78697,-0.56459 2.96406,-0.42344 7.19843,-1.27031 10.02134,-1.97604 2.82292,-0.70573 4.23437,-1.27031 8.89218,-2.25834 4.65781,-0.98802 12.56197,-2.39947 17.50207,-3.38749 4.9401,-0.98802 6.91613,-1.5526 9.5979,-1.97604 2.68177,-0.42343 6.06927,-0.70573 9.03333,-0.98802 2.96406,-0.28229 5.50468,-0.56458 7.48072,0 1.97604,0.56458 3.38749,1.97604 4.6578,2.96406 1.27032,0.98802 2.39948,1.5526 4.09323,3.52864 1.69375,1.97604 3.95208,5.36354 5.50468,7.33958 1.5526,1.97604 2.39948,2.54062 2.96406,3.52864 0.56458,0.98802 0.84688,2.39948 1.41146,3.3875 0.56458,0.98801 1.41145,1.55259 1.97604,2.39947 0.56458,0.84688 0.84687,1.97604 1.27031,2.96406 0.42343,0.98802 0.98802,1.8349 1.5526,3.10521 0.56458,1.27031 1.12917,2.96406 2.68177,6.06926 1.5526,3.10521 4.09323,7.62187 5.92812,11.4328 1.83489,3.81094 2.96406,6.91614 3.95208,8.89218 0.98801,1.97604 1.83488,2.82291 2.68176,4.09323 0.84688,1.27031 1.69375,2.96405 4.37552,6.49269 2.68177,3.52865 7.19843,8.89218 10.16249,11.99739 2.96406,3.1052 4.37552,3.95208 6.06926,5.22239 1.69375,1.27031 3.66979,2.96406 4.9401,3.81093 1.27031,0.84688 1.8349,0.84688 2.39948,1.12917 0.56458,0.28229 1.12916,0.84687 2.82291,1.83489 1.69375,0.98802 4.51666,2.39948 6.21041,3.10521 1.69375,0.70573 2.25833,0.70573 4.37552,1.69375 2.11718,0.98801 5.78697,2.96405 8.46874,3.95207 2.68177,0.98802 4.37552,0.98802 5.22239,1.12917 0.84687,0.14115 0.84687,0.42344 1.41146,0.56458 0.56458,0.14115 1.69374,0.14115 2.82291,0.42344 1.12917,0.28229 2.25833,0.84687 3.38749,1.12917 1.12917,0.28229 2.25834,0.28229 4.79896,0.84687 2.54062,0.56458 6.4927,1.69375 9.73905,2.25833 3.24635,0.56458 5.78697,0.56458 5.64583,1.41146 -0.14115,0.84687 -2.96406,2.54062 -8.0453,4.09322 -5.08125,1.55261 -12.42082,2.96406 -18.06665,4.09323 -5.64583,1.12916 -9.59791,1.97604 -12.42083,2.39947 -2.82291,0.42344 -4.51665,0.42344 -6.2104,0.56458 -1.69375,0.14115 -3.3875,0.42344 -5.64583,0.56458 -2.25833,0.14115 -5.08124,0.14115 -7.05728,0.42344 -1.97604,0.28229 -3.10521,0.84688 -4.23438,1.12917 -1.12916,0.28229 -2.25832,0.28229 -3.38749,0.56458 -1.12917,0.2823 -2.25833,0.84688 -3.24635,1.12917 -0.98802,0.28229 -1.83489,0.28229 -2.25833,0.42344 -0.42344,0.14114 -0.42344,0.42343 -1.55261,0.70572 -1.12916,0.28229 -3.38749,0.56459 -4.94009,0.14115 -1.55261,-0.42344 -2.39948,-1.5526 -4.09323,-3.3875 -1.69375,-1.83489 -4.23437,-4.37551 -6.21041,-6.63384 -1.97604,-2.25833 -3.38749,-4.23437 -4.65781,-5.36354 -1.27031,-1.12916 -2.39947,-1.41146 -3.24635,-2.11718 -0.84687,-0.70573 -1.41146,-1.8349 -2.25833,-2.96406 -0.84687,-1.12917 -1.97604,-2.25833 -2.96406,-3.52865 -0.98802,-1.27031 -1.83489,-2.68176 -2.82291,-3.81093 -0.98802,-1.12916 -2.11718,-1.97604 -3.52864,-3.95208 -1.41146,-1.97604 -3.1052,-5.08124 -4.23437,-6.77499 -1.12917,-1.69375 -1.69375,-1.97604 -2.11719,-2.68177 -0.42343,-0.70573 -0.70573,-1.83489 -1.41145,-3.38749 -0.70573,-1.55261 -1.8349,-3.52865 -2.54062,-4.94011 -0.70573,-1.41145 -0.98802,-2.25832 -1.27032,-2.68176 -0.28229,-0.42344 -0.56458,-0.42344 -0.84687,-0.56458 -0.28229,-0.14115 -0.56458,-0.42344 -0.98802,-1.27031 -0.42344,-0.84688 -0.98802,-2.25834 -1.69375,-3.10521 -0.70573,-0.84687 -1.5526,-1.12917 -2.54062,-2.11719 -0.98802,-0.98802 -2.11719,-2.68176 -3.24635,-3.81093 -1.12917,-1.12916 -2.25833,-1.69375 -3.10521,-2.39947 -0.84687,-0.70573 -1.41146,-1.55261 -1.83489,-1.97604 -0.42344,-0.42344 -0.70573,-0.42344 -1.41146,-0.84688 -0.70573,-0.42344 -1.83489,-1.27031 -3.66979,-1.97603 -1.83489,-0.70573 -4.37551,-1.27032 -6.21041,-1.8349 -1.83489,-0.56459 -2.96406,-1.12917 -6.21041,-1.41146 -3.24635,-0.28229 -8.60988,-0.28229 -14.538,-0.28229 -5.92812,0 -12.42082,0 -17.78435,0.28229 -5.36354,0.28229 -9.59791,0.84688 -13.12655,1.41146 -3.52865,0.56458 -6.35156,1.12917 -11.29166,1.41146 -4.9401,0.28229 -11.99738,0.28229 -15.808314,0.42344 -3.810935,0.14114 -4.375518,0.42343 -7.198432,0.42343 -2.822913,0 -7.904158,-0.28229 -11.009363,-2.39948 -3.105204,-2.11718 -4.23437,-6.06926 -4.940097,-8.18645 -0.705728,-2.11718 -0.988018,-2.39947 -1.27031,-3.24635 -0.282293,-0.84687 -0.564585,-2.25833 -0.988021,-3.3875 -0.423437,-1.12916 -0.988018,-1.97603 -1.270311,-2.96405 -0.282293,-0.98802 -0.282293,-2.11719 -0.564584,-4.51667 -0.282292,-2.39947 -0.846874,-6.06926 3.669787,-8.32759 z"
       id="path24"
       inkscape:path-effect="#path-effect24"
       inkscape:original-d="m 68.596801,373.47147 c 9.597906,-0.84687 19.195813,-1.69375 28.793719,-2.54062 1.976039,0 3.95208,0 5.92812,0 1.69375,-0.56458 3.38749,-1.12917 5.08124,-1.69375 1.12917,0 2.25833,0 3.3875,0 2.25833,-0.56458 4.51666,-1.12916 6.77499,-1.69375 0.84688,0 1.69375,0 2.54062,0 0.2823,-0.28229 0.56459,-0.56458 0.84688,-0.84687 1.97604,0 3.95208,0 5.92812,0 0.56458,-0.28229 1.12916,-0.56458 1.69375,-0.84687 1.69374,0 3.38749,0 5.08124,0 4.23437,-0.84688 8.46874,-1.69375 12.70311,-2.54063 1.41146,-0.56458 2.82291,-1.12916 4.23437,-1.69375 7.90416,-1.41145 15.80832,-2.82291 23.71248,-4.23437 1.97604,-0.56458 3.95207,-1.12916 5.92811,-1.69374 3.3875,-0.2823 6.775,-0.56459 10.16249,-0.84688 2.54063,-0.28229 5.08125,-0.56458 7.62187,-0.84687 1.41146,1.41145 2.82291,2.82291 4.23437,4.23437 1.12917,0.56458 2.25833,1.12916 3.3875,1.69375 2.25833,3.38749 4.51666,6.77499 6.77499,10.16249 0.84687,0.56458 1.69375,1.12916 2.54062,1.69374 0.28229,1.41146 0.56458,2.82292 0.84688,4.23437 0.84687,0.56459 1.69374,1.12917 2.54062,1.69375 0.28229,1.12917 0.56458,2.25833 0.84687,3.3875 0.56459,0.84687 1.12917,1.69375 1.69375,2.54062 0.56458,1.69375 1.12917,3.3875 1.69375,5.08125 2.54062,4.51666 5.08124,9.03332 7.62187,13.54998 1.12916,3.10521 2.25833,6.21041 3.38749,9.31562 0.84688,0.84687 1.69375,1.69374 2.54062,2.54062 0.84688,1.69375 1.69375,3.38749 2.54063,5.08124 4.51666,5.36354 9.03332,10.72707 13.54998,16.09061 1.41146,0.84687 2.82292,1.69375 4.23437,2.54062 1.97604,1.69375 3.95208,3.3875 5.92812,5.08125 0.56458,0 1.12917,0 1.69375,0 0.56458,0.56458 1.12916,1.12916 1.69375,1.69375 2.82291,1.41145 5.64582,2.82291 8.46874,4.23437 0.56458,0 1.12916,0 1.69375,0 3.66978,1.97604 7.33957,3.95207 11.00936,5.92811 1.69375,0 3.3875,0 5.08124,0 0,0.2823 0,0.56459 0,0.84688 1.12917,0 2.25833,0 3.3875,0 1.12917,0.56458 2.25833,1.12916 3.3875,1.69375 1.12916,0 2.25833,0 3.38749,0 3.95208,1.12916 7.90416,2.25833 11.85624,3.38749 2.54062,0 5.08124,0 7.62187,0 -2.82292,1.69375 -5.64583,3.3875 -8.46874,5.08125 -7.33958,1.41145 -14.67915,2.82291 -22.01873,4.23437 -3.95208,0.84687 -7.90416,1.69375 -11.85624,2.54062 -1.69375,0 -3.38749,0 -5.08124,0 -1.69375,0.28229 -3.3875,0.56458 -5.08125,0.84687 -2.82291,0 -5.64582,0 -8.46874,0 -1.12916,0.56459 -2.25833,1.12917 -3.38749,1.69375 -1.12917,0 -2.25833,0 -3.3875,0 -1.12917,0.56459 -2.25833,1.12917 -3.3875,1.69375 -0.84687,0 -1.69374,0 -2.54062,0 0,0.28229 0,0.56458 0,0.84687 -2.25833,0.2823 -4.51666,0.56459 -6.77499,0.84688 -0.84688,-1.12917 -1.69375,-2.25833 -2.54062,-3.3875 -2.54063,-2.54062 -5.08125,-5.08124 -7.62187,-7.62186 -1.41146,-1.97604 -2.82291,-3.95208 -4.23437,-5.92812 -1.12917,-0.28229 -2.25833,-0.56459 -3.3875,-0.84688 -0.56458,-1.12916 -1.12916,-2.25833 -1.69375,-3.38749 -1.12916,-1.12917 -2.25833,-2.25833 -3.38749,-3.3875 -0.84688,-1.41146 -1.69375,-2.82291 -2.54062,-4.23437 -1.12917,-0.84687 -2.25833,-1.69375 -3.3875,-2.54062 -1.69375,-3.10521 -3.3875,-6.21041 -5.08124,-9.31562 -0.56459,-0.28229 -1.12917,-0.56458 -1.69375,-0.84687 -0.28229,-1.12917 -0.56459,-2.25833 -0.84688,-3.3875 -1.12916,-1.97604 -2.25833,-3.95208 -3.38749,-5.92812 -0.28229,-0.84687 -0.56459,-1.69374 -0.84688,-2.54062 -0.28229,0 -0.56458,0 -0.84687,0 -0.28229,-0.28229 -0.56458,-0.56458 -0.84688,-0.84687 -0.56458,-1.41146 -1.12916,-2.82292 -1.69374,-4.23437 -0.84688,-0.28229 -1.69375,-0.56459 -2.54063,-0.84688 -1.12916,-1.69375 -2.25833,-3.38749 -3.38749,-5.08124 -1.12917,-0.56458 -2.25833,-1.12917 -3.3875,-1.69375 -0.56458,-0.84687 -1.12916,-1.69375 -1.69375,-2.54062 -0.28229,0 -0.56458,0 -0.84687,0 -1.12917,-0.84688 -2.25833,-1.69375 -3.3875,-2.54062 -2.54062,-0.56459 -5.08124,-1.12917 -7.62186,-1.69375 -1.12917,-0.56459 -2.25834,-1.12917 -3.3875,-1.69375 -5.36354,0 -10.72707,0 -16.09061,0 -6.4927,0 -12.9854,0 -19.4781,0 -4.23437,0.56458 -8.46874,1.12916 -12.70311,1.69375 -2.82292,0.56458 -5.64583,1.12916 -8.46874,1.69375 -7.05729,0 -14.11457,0 -21.171856,0 -0.564583,0.28229 -1.129166,0.56458 -1.693749,0.84687 -5.081244,-0.28229 -10.162489,-0.56458 -15.243733,-0.84687 -1.129166,-3.95208 -2.258331,-7.90416 -3.387496,-11.85624 -0.282292,-0.28229 -0.564583,-0.56458 -0.846875,-0.84688 -0.282291,-1.41145 -0.564582,-2.82291 -0.846874,-4.23437 -0.564582,-0.84687 -1.129165,-1.69374 -1.693748,-2.54062 0,-1.12916 0,-2.25833 0,-3.38749 -0.564583,-3.66979 -1.129165,-7.33958 -1.693748,-11.00937 z" />
  </g>
</svg>
